<svg width="45" height="38" viewBox="0 0 45 38" fill="none" xmlns="http://www.w3.org/2000/svg">
<path opacity="0.3" d="M1.65085 13.7202C1.93831 13.7196 2.20771 13.8918 2.42498 14.1818C2.42506 14.1815 2.42716 14.1813 2.42724 14.1811C4.83645 6.53983 12.7714 0.855291 22.2937 0.754295C24.2308 0.733776 26.1116 0.944863 27.9006 1.36141C27.9024 1.36182 27.9043 1.36232 27.9061 1.36269C27.9062 1.36228 27.9064 1.36182 27.9065 1.36132C35.0215 3.01038 40.6868 7.87174 42.7083 14.1112C42.9376 13.8119 43.2498 13.6352 43.5531 13.6345C44.3282 13.6329 45 14.7734 45 16.1809V23.5852C45 24.9947 44.3584 26.1307 43.5832 26.126C43.5787 26.126 43.5641 26.1245 43.5596 26.1244C43.5539 26.1245 43.5433 26.1259 43.5377 26.1258C43.0751 26.123 42.6399 25.7126 42.3862 25.0837C39.537 32.4305 31.5723 37.6251 22.296 37.4977C19.6993 37.462 17.2194 37.0115 14.9406 36.2189C9.17647 34.2218 4.67388 30.0423 2.7268 24.8681C2.72664 24.8676 2.72632 24.8672 2.72612 24.8667C2.48444 25.4771 2.08894 25.8733 1.65097 25.8706C0.919228 25.8662 0.318359 24.7544 0.318359 23.3874V16.1979C0.318319 14.831 0.919064 13.7217 1.65085 13.7202Z" fill="#282460"/>
<path d="M1.30859 17.9294C1.30859 19.9012 1.67017 21.7992 2.33877 23.5754C4.24228 28.6337 8.64375 32.7197 14.2788 34.6721C16.5066 35.4469 18.9305 35.8875 21.4689 35.9223C30.5375 36.0469 38.3227 30.9686 41.1081 23.7863C41.8133 21.9686 42.1953 20.0205 42.1953 17.9933C42.1953 16.2837 41.9229 14.6284 41.4144 13.0594C39.4383 6.95961 33.9054 2.20707 26.9498 0.594935C25.2009 0.187709 23.3626 -0.0186656 21.4689 0.00139637C12.1598 0.100107 4.40348 5.65737 2.04819 13.1276C1.56646 14.656 1.30859 16.2664 1.30859 17.9294Z" fill="white"/>
<path d="M12.0096 27.5764L30.3946 27.7259C34.16 27.7565 37.2265 24.2977 37.2265 20.0002V15.4564C37.2265 13.5149 35.8396 11.9445 34.1323 11.9487L8.38212 12.0128C6.73708 12.0169 5.40625 13.5605 5.40625 15.4606V19.9074C5.40621 24.1132 8.35529 27.5467 12.0096 27.5764Z" fill="#FED6FF"/>
<path d="M20.1599 31.4314L22.7797 31.4595C26.4122 31.4983 29.3701 28.152 29.3701 23.9851C29.3701 19.8183 26.4122 16.4388 22.7797 16.4369L20.1599 16.4355C16.558 16.4336 13.6509 19.7742 13.6509 23.8969C13.6509 28.0196 16.558 31.3929 20.1599 31.4314Z" fill="#FED6FF"/>
<path d="M11.5196 24.0747L31.1032 24.1873C33.7812 24.2027 35.9592 21.7401 35.9592 18.6869V16.6711C35.9592 14.7313 34.5747 13.1611 32.8703 13.1639L9.80295 13.2025C8.15475 13.2053 6.82129 14.7493 6.82129 16.6512V18.6276C6.82125 21.6211 8.92106 24.0598 11.5196 24.0747Z" fill="#282460"/>
<path d="M25.3318 19.3002C25.1447 18.9944 25.0288 18.6508 25.0288 18.2802C25.0288 17.0803 26.1419 16.108 27.5172 16.1084C28.8951 16.1088 30.014 17.0851 30.014 18.289C30.014 18.6609 29.8974 19.0052 29.7091 19.311L25.3318 19.3002Z" fill="#FED6FF"/>
<path d="M12.9193 19.2697C12.7353 18.9665 12.6211 18.6258 12.6211 18.2582C12.6211 17.0684 13.7156 16.1043 15.0682 16.1047C16.423 16.1051 17.5232 17.0732 17.5232 18.2669C17.5232 18.6357 17.4085 18.9771 17.2234 19.2804L12.9193 19.2697Z" fill="#FED6FF"/>
<path d="M40.9819 15.0841V22.3094C40.9819 22.8607 41.0107 23.3717 41.1784 23.7866C41.4265 24.4014 41.7782 24.8025 42.2304 24.8053C42.9882 24.8099 43.5536 23.6993 43.5536 22.3214V15.0829C43.5536 13.7069 42.9529 12.5919 42.1952 12.5934C41.8987 12.594 41.6317 12.7669 41.4074 13.0595C41.3458 13.139 41.3614 13.2281 41.3083 13.325C41.0603 13.7761 40.9819 14.3973 40.9819 15.0841Z" fill="#FED6FF"/>
<path d="M1.29484 24.5555C2.01096 24.5598 2.59203 23.4781 2.59203 22.1394V15.0982C2.59203 13.7595 2.011 12.6754 1.29484 12.6769C0.579455 12.6783 0 13.7628 0 15.0992V22.1279C0 23.4642 0.579455 24.5511 1.29484 24.5555Z" fill="#FED6FF"/>
<path opacity="0.3" d="M20.0051 31.4273C18.2029 32.7531 16.2479 33.8358 14.2783 34.6721C16.5061 35.4469 18.93 35.8875 21.4684 35.9224C30.537 36.0469 38.3221 30.9686 41.1075 23.7863C41.3556 24.4011 41.7425 24.8023 42.1948 24.805C42.9525 24.8097 43.5532 23.6992 43.5532 22.3213V15.0827C43.5532 13.7067 42.9525 12.5918 42.1948 12.5933C41.8983 12.5939 41.6313 12.7667 41.407 13.0594C39.4308 6.95959 33.9014 2.20709 26.9457 0.59491C26.2879 3.2451 26.3082 6.54373 27.5151 10.6372C27.6479 11.0854 27.7631 11.528 27.8638 11.9649C27.9581 12.3712 28.0374 12.7738 28.1047 13.1726C28.2813 14.2273 28.3672 15.2497 28.3689 16.2395C28.3706 17.3003 28.2799 18.3226 28.1033 19.3062C28.0915 19.3675 28.0815 19.427 28.0681 19.4864C27.7504 21.1596 27.1877 22.7177 26.4341 24.1605C25.7768 25.4225 24.9726 26.5943 24.0608 27.6739C22.8678 29.0843 21.4901 30.3377 20.0051 31.4273Z" fill="#FED6FF"/>
</svg>
